<svg xmlns="http://www.w3.org/2000/svg" width="151" height="151" viewBox="0 0 151 151" fill="none"><rect x="4.63281" y="4.94141" width="141.426" height="141.426" rx="70.7129" fill="#3D777F" stroke="white" stroke-width="8"></rect><path d="M85.3227 69.1945L63.9103 90.6069L60.3926 87.0892L81.8025 65.6768H62.9326V60.7012H90.2983V88.0669H85.3227V69.1945Z" fill="white"></path><path d="M74.3575 125.553V132.753H70.0225V131.548H73.1525V129.753H70.6225V128.553H73.1525V125.553H74.3575Z" fill="white"></path><path d="M65.8166 125.117L64.454 132.187L61.5328 131.624C61.4641 131.611 61.3763 131.59 61.2696 131.563C61.1622 131.539 61.0642 131.51 60.9758 131.476C60.5786 131.335 60.2677 131.134 60.0429 130.873C59.8149 130.612 59.668 130.309 59.6021 129.964C59.5324 129.621 59.5351 129.255 59.6101 128.865C59.7212 128.289 59.9624 127.821 60.3338 127.462C60.7046 127.106 61.2006 126.936 61.8218 126.954L62.336 127.008L64.1575 127.359L64.6334 124.889L65.8166 125.117ZM61.7564 124.335L62.5962 127.48L61.3422 127.514L60.416 124.076L61.7564 124.335ZM63.9445 128.463L62.2556 128.138C62.1902 128.125 62.1159 128.114 62.0328 128.105C61.9497 128.096 61.8719 128.094 61.7994 128.101C61.5935 128.112 61.423 128.169 61.2877 128.272C61.1492 128.374 61.0419 128.5 60.9658 128.648C60.8864 128.796 60.8322 128.945 60.8032 129.095C60.7742 129.246 60.7691 129.404 60.7879 129.571C60.8028 129.74 60.8555 129.898 60.9461 130.044C61.0334 130.19 61.1706 130.307 61.3575 130.394C61.4224 130.426 61.4955 130.452 61.5767 130.471C61.6573 130.494 61.7303 130.511 61.7957 130.524L63.4847 130.849L63.9445 128.463Z" fill="white"></path><path d="M56.4911 122.804L53.8151 129.488L49.4982 127.76L49.9181 126.711L53.1164 127.991L53.7761 126.344L51.1349 125.286L51.5548 124.237L54.1961 125.295L54.9524 123.405L51.7542 122.125L52.1741 121.076L56.4911 122.804Z" fill="white"></path><path d="M48.1212 118.909L44.2286 124.966L40.3168 122.452L40.9277 121.501L43.8258 123.364L44.7855 121.87L42.3921 120.332L43.003 119.382L45.3964 120.92L46.4966 119.208L43.5985 117.345L44.2094 116.395L48.1212 118.909Z" fill="white"></path><path d="M39.0951 111.817C39.6162 112.314 39.9543 112.853 40.1096 113.434C40.2626 114.017 40.2449 114.609 40.0564 115.207C39.8654 115.803 39.5135 116.371 39.0005 116.909C38.4876 117.447 37.9378 117.825 37.3513 118.044C36.7623 118.261 36.1739 118.306 35.5862 118.178C34.9961 118.053 34.4406 117.742 33.9195 117.245C33.3188 116.673 32.962 116.044 32.849 115.361C32.7338 114.68 32.838 114.008 33.1618 113.345L34.2723 113.941C34.0493 114.378 33.9687 114.807 34.0307 115.23C34.0903 115.656 34.3143 116.053 34.7027 116.424C35.0525 116.757 35.4192 116.957 35.8027 117.024C36.1838 117.088 36.5692 117.034 36.9588 116.862C37.3438 116.69 37.7192 116.415 38.085 116.036C38.4485 115.654 38.708 115.266 38.8636 114.871C39.0145 114.476 39.0478 114.089 38.9633 113.709C38.8788 113.329 38.6616 112.972 38.3118 112.639C37.9234 112.268 37.5154 112.064 37.0877 112.024C36.66 111.985 36.2345 112.086 35.8112 112.327L35.163 111.246C35.81 110.891 36.4775 110.754 37.1655 110.834C37.8512 110.917 38.4944 111.245 39.0951 111.817Z" fill="white"></path><path d="M33.1501 104.872C33.5677 105.458 33.7978 106.052 33.8404 106.652C33.8802 107.253 33.7509 107.83 33.4525 108.382C33.1522 108.932 32.6992 109.422 32.0937 109.853C31.4882 110.285 30.8768 110.552 30.2593 110.656C29.64 110.758 29.0538 110.69 28.5008 110.454C27.9451 110.219 27.4584 109.809 27.0408 109.222C26.6231 108.636 26.3944 108.042 26.3546 107.44C26.3101 106.837 26.4381 106.261 26.7384 105.712C27.0368 105.16 27.4887 104.668 28.0942 104.237C28.6997 103.806 29.3122 103.539 29.9315 103.438C30.549 103.334 31.1365 103.4 31.6941 103.638C32.2471 103.874 32.7325 104.285 33.1501 104.872ZM32.2256 105.53C31.9479 105.135 31.628 104.869 31.2659 104.734C30.9019 104.597 30.5133 104.577 30.1 104.675C29.6849 104.77 29.2628 104.97 28.8338 105.275C28.4048 105.581 28.0802 105.912 27.86 106.27C27.6351 106.626 27.5282 106.999 27.5392 107.388C27.5484 107.774 27.6904 108.166 27.9653 108.564C28.243 108.96 28.5629 109.225 28.925 109.36C29.2871 109.495 29.6757 109.515 30.0908 109.42C30.504 109.322 30.9252 109.12 31.3542 108.815C31.7832 108.509 32.1101 108.178 32.335 107.822C32.5572 107.467 32.6637 107.097 32.6545 106.71C32.6435 106.321 32.5005 105.928 32.2256 105.53Z" fill="white"></path><path d="M29.6592 99.5724L23.1099 102.563L22.6031 101.454L25.832 96.3073L21.2156 98.4155L20.7088 97.3057L27.2581 94.3147L27.765 95.4245L24.5361 100.571L29.1524 98.4627L29.6592 99.5724Z" fill="white"></path><path d="M25.6175 88.0988C25.7417 88.6106 25.7646 89.0938 25.6862 89.5484C25.6071 89.9998 25.4345 90.3984 25.1685 90.7442C24.8985 91.0875 24.5438 91.3502 24.1044 91.5323L23.625 90.3623C24.0145 90.1581 24.2837 89.8681 24.4327 89.4924C24.5809 89.1134 24.6039 88.7134 24.5017 88.2923C24.4412 88.0428 24.3453 87.8174 24.2142 87.616C24.083 87.4146 23.9264 87.2639 23.7443 87.164C23.5615 87.0609 23.3616 87.0356 23.1446 87.0883C23.0474 87.1119 22.9623 87.1497 22.8891 87.2017C22.8128 87.2545 22.75 87.3212 22.701 87.4017C22.6511 87.479 22.6125 87.5741 22.585 87.6871C22.5535 87.7976 22.534 87.9224 22.5266 88.0614L22.4306 89.9987C22.423 90.1652 22.4039 90.3481 22.3734 90.5476C22.3389 90.7446 22.2749 90.9402 22.1813 91.1344C22.0838 91.3262 21.9439 91.499 21.7618 91.653C21.5756 91.8045 21.3286 91.9176 21.0209 91.9922C20.5706 92.1014 20.1657 92.0796 19.8062 91.9267C19.4427 91.7714 19.138 91.5195 18.8922 91.1709C18.6457 90.8191 18.4667 90.4064 18.3552 89.9326C18.2421 89.4524 18.221 89.0048 18.2918 88.5897C18.3593 88.1754 18.5147 87.805 18.7579 87.4785C19.0011 87.1519 19.3256 86.8846 19.7313 86.6764L20.2552 87.8819C20.0216 87.9934 19.837 88.1445 19.7015 88.3352C19.5619 88.5234 19.4727 88.7354 19.4339 88.9712C19.3943 89.2038 19.4003 89.4407 19.452 89.682C19.5053 89.916 19.5936 90.1244 19.7168 90.3071C19.836 90.4875 19.9786 90.6227 20.1445 90.7128C20.3096 90.7996 20.4829 90.821 20.6643 90.777C20.836 90.7354 20.9643 90.6494 21.0493 90.519C21.1311 90.3894 21.1859 90.2406 21.2137 90.0726C21.2376 89.9022 21.2513 89.7325 21.2549 89.5636L21.3006 88.2251C21.3043 88.0424 21.3191 87.8347 21.345 87.602C21.3709 87.3694 21.4295 87.1374 21.5208 86.906C21.6122 86.6746 21.7559 86.4682 21.952 86.2869C22.1473 86.1023 22.4199 85.9675 22.7698 85.8827C23.1326 85.7947 23.4701 85.7934 23.7824 85.8788C24.0907 85.9618 24.3666 86.1093 24.61 86.3212C24.8535 86.5331 25.0607 86.7932 25.2316 87.1016C25.4016 87.4068 25.5303 87.7392 25.6175 88.0988Z" fill="white"></path><path d="M24.3771 79.0644C24.4044 79.637 24.3119 80.147 24.0996 80.5943C23.8871 81.0382 23.5754 81.3935 23.1642 81.66C22.753 81.9232 22.2626 82.0684 21.6933 82.0955L17.1834 82.3103L17.1154 81.0922L21.6053 80.8783C21.875 80.8655 22.1142 80.809 22.323 80.709C22.5317 80.6056 22.7072 80.4721 22.8496 80.3084C22.9886 80.145 23.0916 79.9599 23.1585 79.7531C23.2254 79.5464 23.2537 79.3348 23.2434 79.1184C23.2328 78.8953 23.1844 78.6857 23.0983 78.4896C23.0087 78.2903 22.887 78.1159 22.733 77.9663C22.5757 77.817 22.3884 77.7024 22.171 77.6227C21.9536 77.5429 21.7118 77.5094 21.4454 77.5221L16.9555 77.736L16.8974 76.5174L21.4173 76.3021C21.9867 76.2749 22.4886 76.3745 22.9232 76.6007C23.3577 76.8237 23.7018 77.1477 23.9557 77.5727C24.2093 77.9945 24.3498 78.4917 24.3771 79.0644Z" fill="white"></path><path d="M24.4142 71.9723L17.2875 70.9476L17.4589 69.7549L23.4672 70.6187L23.9197 67.4711L25.0382 67.6319L24.4142 71.9723Z" fill="white"></path><path d="M26.7441 61.4772L21.008 59.4919L20.2459 61.6937L19.1781 61.3241L21.0963 55.7817L22.1642 56.1513L21.4021 58.3532L27.1382 60.3385L26.7441 61.4772Z" fill="white"></path><path d="M29.1095 55.5023L24.0091 49.9364L24.8916 48.4078L32.262 50.042L31.642 51.1158L25.0175 49.6699L25.1525 49.436L29.7295 54.4284L29.1095 55.5023ZM28.391 53.6267L27.4167 53.0642L29.3067 49.7907L30.281 50.3532L28.391 53.6267Z" fill="white"></path><path d="M35.8178 45.5088L31.2304 41.5338L29.7046 43.2947L28.8506 42.5547L32.6914 38.1222L33.5454 38.8622L32.0196 40.6231L36.607 44.5981L35.8178 45.5088Z" fill="white"></path><path d="M42.2406 39.2622L37.7899 33.6026L38.7371 32.8577L43.1878 38.5173L42.2406 39.2622Z" fill="white"></path><path d="M50.7797 33.9142C50.1397 34.2441 49.5198 34.3874 48.92 34.3441C48.3186 34.2979 47.7659 34.0878 47.2619 33.7139C46.7608 33.3384 46.3399 32.8203 45.9993 32.1596C45.6587 31.4989 45.4808 30.8556 45.4656 30.2296C45.4534 29.6022 45.6036 29.0315 45.9163 28.5178C46.2275 28.0011 46.703 27.5778 47.343 27.2479C47.983 26.918 48.6036 26.7761 49.205 26.8224C49.8078 26.8641 50.3598 27.0727 50.8609 27.4482C51.3649 27.8221 51.7872 28.3395 52.1278 29.0002C52.4685 29.6609 52.6449 30.305 52.6571 30.9324C52.6723 31.5584 52.5228 32.1305 52.2087 32.6487C51.896 33.1624 51.4197 33.5842 50.7797 33.9142ZM50.2596 32.9053C50.6908 32.6868 50.9989 32.408 51.184 32.0688C51.3721 31.728 51.4472 31.3462 51.4092 30.9233C51.3741 30.4988 51.2359 30.0525 50.9946 29.5844C50.7532 29.1163 50.4714 28.7478 50.149 28.479C49.8281 28.2056 49.4743 28.0468 49.0877 28.0023C48.7039 27.9564 48.2958 28.0412 47.8631 28.2567C47.432 28.4752 47.1238 28.7541 46.9387 29.0933C46.7535 29.4325 46.6785 29.8144 46.7136 30.2388C46.7516 30.6617 46.8913 31.1073 47.1326 31.5754C47.3739 32.0435 47.655 32.4142 47.976 32.6876C48.2954 32.9579 48.6469 33.1161 49.0306 33.162C49.4173 33.2065 49.827 33.1209 50.2596 32.9053Z" fill="white"></path><path d="M56.5216 31.2133L54.4931 24.3049L55.6637 23.9612L60.2982 27.8897L58.8684 23.0202L60.039 22.6765L62.0675 29.5849L60.8969 29.9286L56.2624 26.0001L57.6922 30.8696L56.5216 31.2133Z" fill="white"></path><path d="M76.3339 27.7559L76.3339 20.5559L80.6689 20.5559L80.6689 21.7609L77.5389 21.7609L77.5389 23.5559L80.0689 23.5559L80.0689 24.7559L77.5389 24.7559L77.5389 27.7559L76.3339 27.7559Z" fill="white"></path><path d="M84.8748 28.1905L86.2374 21.1206L89.1586 21.6837C89.2273 21.6969 89.3151 21.7172 89.4218 21.7446C89.5292 21.7687 89.6272 21.7977 89.7157 21.8318C90.1128 21.9728 90.4238 22.1736 90.6485 22.4342C90.8765 22.6954 91.0234 22.9987 91.0893 23.344C91.159 23.6868 91.1563 24.0529 91.0813 24.4424C90.9702 25.0184 90.729 25.4862 90.3576 25.8458C89.9868 26.2021 89.4908 26.3712 88.8696 26.3534L88.3554 26.3001L86.534 25.949L86.058 28.4186L84.8748 28.1905ZM88.935 28.9731L88.0952 25.8273L89.3492 25.794L90.2754 29.2314L88.935 28.9731ZM86.7469 24.8444L88.4358 25.1699C88.5012 25.1825 88.5755 25.1934 88.6586 25.2026C88.7417 25.2119 88.8195 25.2133 88.892 25.2069C89.0979 25.1956 89.2684 25.1385 89.4037 25.0356C89.5422 24.9333 89.6495 24.808 89.7256 24.6598C89.805 24.5121 89.8592 24.363 89.8882 24.2124C89.9172 24.0619 89.9223 23.9033 89.9035 23.7367C89.8886 23.5675 89.8359 23.4097 89.7453 23.2632C89.658 23.1174 89.5208 23.001 89.3339 22.9141C89.269 22.8812 89.1959 22.8552 89.1147 22.8362C89.0341 22.8139 88.9611 22.7964 88.8957 22.7838L87.2067 22.4583L86.7469 24.8444Z" fill="white"></path><path d="M94.2004 30.5045L96.8763 23.8203L101.193 25.5485L100.773 26.5975L97.575 25.3172L96.9153 26.965L99.5565 28.0224L99.1366 29.0715L96.4953 28.0141L95.739 29.9033L98.9372 31.1837L98.5173 32.2327L94.2004 30.5045Z" fill="white"></path><path d="M102.57 34.4L106.463 28.343L110.375 30.857L109.764 31.8076L106.866 29.9451L105.906 31.4383L108.299 32.9764L107.688 33.9271L105.295 32.3889L104.195 34.1009L107.093 35.9634L106.482 36.914L102.57 34.4Z" fill="white"></path><path d="M111.596 41.4903C111.075 40.9935 110.737 40.4546 110.582 39.8735C110.429 39.2901 110.447 38.6991 110.635 38.1005C110.826 37.5041 111.178 36.937 111.691 36.399C112.204 35.861 112.754 35.4825 113.34 35.2634C113.929 35.0467 114.517 35.002 115.105 35.1295C115.695 35.2545 116.251 35.5655 116.772 36.0623C117.373 36.6351 117.729 37.2632 117.842 37.9466C117.958 38.6276 117.853 39.2996 117.53 39.9628L116.419 39.3668C116.642 38.93 116.723 38.5002 116.661 38.0773C116.601 37.652 116.377 37.2541 115.989 36.8838C115.639 36.5502 115.272 36.3503 114.889 36.284C114.508 36.22 114.122 36.2739 113.733 36.4459C113.348 36.6177 112.972 36.8931 112.606 37.272C112.243 37.6531 111.983 38.0413 111.828 38.4363C111.677 38.8313 111.644 39.2188 111.728 39.5987C111.813 39.9786 112.03 40.3354 112.38 40.6689C112.768 41.0392 113.176 41.2441 113.604 41.2834C114.031 41.3227 114.457 41.2218 114.88 40.9807L115.528 42.0616C114.881 42.4165 114.214 42.5538 113.526 42.4735C112.84 42.3908 112.197 42.0631 111.596 41.4903Z" fill="white"></path><path d="M117.541 48.4366C117.124 47.8501 116.894 47.2569 116.851 46.657C116.811 46.0552 116.941 45.4782 117.239 44.9261C117.539 44.3767 117.992 43.8864 118.598 43.4552C119.203 43.024 119.815 42.7564 120.432 42.6523C121.051 42.5509 121.638 42.6184 122.191 42.8548C122.746 43.0892 123.233 43.4997 123.651 44.0862C124.068 44.6727 124.297 45.2669 124.337 45.8687C124.381 46.4713 124.253 47.0473 123.953 47.5967C123.655 48.1489 123.203 48.6405 122.597 49.0717C121.992 49.5029 121.379 49.7692 120.76 49.8706C120.142 49.9747 119.555 49.9082 118.997 49.671C118.444 49.4346 117.959 49.0231 117.541 48.4366ZM118.466 47.7783C118.743 48.1739 119.063 48.4392 119.425 48.5742C119.79 48.7119 120.178 48.7319 120.591 48.634C121.006 48.5389 121.429 48.3386 121.858 48.0331C122.287 47.7276 122.611 47.3962 122.831 47.0389C123.056 46.6823 123.163 46.3095 123.152 45.9205C123.143 45.5341 123.001 45.1422 122.726 44.7446C122.448 44.3489 122.129 44.0836 121.766 43.9486C121.404 43.8136 121.016 43.7937 120.601 43.8888C120.187 43.9866 119.766 44.1883 119.337 44.4938C118.908 44.7993 118.581 45.1303 118.356 45.4869C118.134 45.8415 118.028 46.212 118.037 46.5983C118.048 46.9874 118.191 47.3807 118.466 47.7783Z" fill="white"></path><path d="M121.032 53.7362L127.582 50.7452L128.088 51.8549L124.859 57.0013L129.476 54.8931L129.983 56.0029L123.433 58.9939L122.926 57.8841L126.155 52.7377L121.539 54.8459L121.032 53.7362Z" fill="white"></path><path d="M125.074 65.2098C124.95 64.698 124.927 64.2148 125.005 63.7602C125.084 63.3088 125.257 62.9102 125.523 62.5644C125.793 62.2211 126.148 61.9584 126.587 61.7763L127.066 62.9463C126.677 63.1505 126.408 63.4405 126.259 63.8162C126.111 64.1952 126.088 64.5952 126.19 65.0163C126.25 65.2657 126.346 65.4912 126.477 65.6926C126.608 65.894 126.765 66.0447 126.947 66.1446C127.13 66.2477 127.33 66.273 127.547 66.2203C127.644 66.1967 127.729 66.1589 127.802 66.1069C127.879 66.0541 127.941 65.9874 127.99 65.9069C128.04 65.8296 128.079 65.7345 128.106 65.6215C128.138 65.511 128.157 65.3862 128.165 65.2472L128.261 63.3099C128.268 63.1434 128.287 62.9605 128.318 62.761C128.353 62.564 128.417 62.3683 128.51 62.1742C128.608 61.9824 128.747 61.8096 128.93 61.6556C129.116 61.5041 129.363 61.391 129.671 61.3164C130.121 61.2071 130.526 61.229 130.885 61.3819C131.249 61.5372 131.553 61.7891 131.799 62.1377C132.046 62.4895 132.225 62.9022 132.336 63.376C132.449 63.8562 132.47 64.3038 132.4 64.7189C132.332 65.1332 132.177 65.5036 131.933 65.8301C131.69 66.1567 131.366 66.424 130.96 66.6322L130.436 65.4267C130.67 65.3152 130.854 65.1641 130.99 64.9734C131.129 64.7852 131.219 64.5732 131.258 64.3374C131.297 64.1048 131.291 63.8679 131.239 63.6266C131.186 63.3926 131.098 63.1842 130.975 63.0014C130.855 62.8211 130.713 62.6859 130.547 62.5958C130.382 62.509 130.208 62.4876 130.027 62.5316C129.855 62.5732 129.727 62.6592 129.642 62.7896C129.56 62.9192 129.506 63.068 129.478 63.236C129.454 63.4064 129.44 63.5761 129.437 63.745L129.391 65.0835C129.387 65.2662 129.372 65.4739 129.346 65.7065C129.321 65.9392 129.262 66.1712 129.171 66.4026C129.079 66.634 128.935 66.8404 128.739 67.0217C128.544 67.2063 128.271 67.341 127.922 67.4259C127.559 67.5139 127.221 67.5152 126.909 67.4298C126.601 67.3468 126.325 67.1993 126.081 66.9874C125.838 66.7755 125.631 66.5154 125.46 66.2069C125.29 65.9018 125.161 65.5694 125.074 65.2098Z" fill="white"></path><path d="M126.313 74.2442C126.286 73.6716 126.379 73.1616 126.591 72.7143C126.803 72.2704 127.115 71.9151 127.526 71.6486C127.937 71.3854 128.428 71.2402 128.997 71.2131L133.507 70.9983L133.575 72.2164L129.085 72.4303C128.815 72.4431 128.576 72.4996 128.367 72.5996C128.159 72.703 127.983 72.8365 127.841 73.0001C127.702 73.1636 127.599 73.3487 127.532 73.5555C127.465 73.7622 127.437 73.9738 127.447 74.1902C127.458 74.4133 127.506 74.6229 127.592 74.819C127.682 75.0183 127.803 75.1927 127.957 75.3423C128.115 75.4916 128.302 75.6062 128.519 75.6859C128.737 75.7656 128.979 75.7992 129.245 75.7865L133.735 75.5726L133.793 76.7912L129.273 77.0065C128.704 77.0337 128.202 76.9341 127.767 76.7078C127.333 76.4849 126.989 76.1609 126.735 75.7359C126.481 75.3141 126.341 74.8169 126.313 74.2442Z" fill="white"></path><path d="M126.277 81.3363L133.404 82.361L133.232 83.5537L127.224 82.6899L126.772 85.8375L125.653 85.6767L126.277 81.3363Z" fill="white"></path><path d="M123.947 91.8314L129.683 93.8167L130.445 91.6149L131.513 91.9844L129.595 97.5269L128.527 97.1573L129.289 94.9554L123.553 92.9701L123.947 91.8314Z" fill="white"></path><path d="M121.582 97.8063L126.682 103.372L125.8 104.901L118.429 103.267L119.049 102.193L125.674 103.639L125.539 103.873L120.962 98.8802L121.582 97.8063ZM122.3 99.6819L123.275 100.244L121.385 103.518L120.41 102.955L122.3 99.6819Z" fill="white"></path><path d="M114.874 107.8L119.461 111.775L120.987 110.014L121.841 110.754L118 115.186L117.146 114.446L118.672 112.685L114.084 108.71L114.874 107.8Z" fill="white"></path><path d="M108.451 114.046L112.902 119.706L111.954 120.451L107.504 114.791L108.451 114.046Z" fill="white"></path><path d="M99.9117 119.394C100.552 119.064 101.172 118.921 101.771 118.964C102.373 119.011 102.925 119.221 103.43 119.595C103.931 119.97 104.351 120.488 104.692 121.149C105.033 121.81 105.211 122.453 105.226 123.079C105.238 123.706 105.088 124.277 104.775 124.791C104.464 125.307 103.988 125.731 103.348 126.061C102.708 126.391 102.088 126.532 101.486 126.486C100.884 126.444 100.332 126.236 99.8306 125.86C99.3265 125.486 98.9042 124.969 98.5636 124.308C98.2229 123.648 98.0465 123.004 98.0343 122.376C98.0191 121.75 98.1686 121.178 98.4827 120.66C98.7954 120.146 99.2717 119.724 99.9117 119.394ZM100.432 120.403C100.001 120.622 99.6925 120.901 99.5074 121.24C99.3193 121.581 99.2442 121.962 99.2822 122.385C99.3173 122.81 99.4555 123.256 99.6968 123.724C99.9382 124.192 100.22 124.561 100.542 124.83C100.863 125.103 101.217 125.262 101.604 125.306C101.987 125.352 102.396 125.267 102.828 125.052C103.259 124.833 103.568 124.554 103.753 124.215C103.938 123.876 104.013 123.494 103.978 123.07C103.94 122.647 103.8 122.201 103.559 121.733C103.317 121.265 103.036 120.894 102.715 120.621C102.396 120.351 102.044 120.193 101.661 120.147C101.274 120.102 100.864 120.188 100.432 120.403Z" fill="white"></path><path d="M94.1698 122.095L96.1983 129.004L95.0277 129.347L90.3932 125.419L91.823 130.288L90.6524 130.632L88.6239 123.724L89.7945 123.38L94.429 127.308L92.9992 122.439L94.1698 122.095Z" fill="white"></path><circle cx="67.9561" cy="23.2559" r="1.5" fill="white"></circle><circle cx="81.8027" cy="129.053" r="1.5" fill="white"></circle></svg>