<?xml version="1.0" encoding="UTF-8"?>
<svg id="Layer_2" data-name="Layer 2" xmlns="http://www.w3.org/2000/svg" viewBox="0 0 2835.49 2835.48">
  <defs>
    <style>
      .cls-1 {
        fill: #89b8bd;
      }

      .cls-1, .cls-2, .cls-3 {
        stroke-width: 0px;
      }

      .cls-2 {
        fill: #3e767e;
      }

      .cls-3 {
        fill: #fff;
      }
    </style>
  </defs>
  <g id="Layer_1-2" data-name="Layer 1">
    <g>
      <rect class="cls-3" width="2835.49" height="2835.48"/>
      <g>
        <path class="cls-2" d="M520.39,1553.98c-5.22,0-9.48-1.53-12.79-4.61l-128.27-107.71h-8.5v92.48c0,5.44-2.01,10.1-6.02,14-4.02,3.9-8.74,5.85-14.17,5.85s-10.16-1.95-14.17-5.85c-4.02-3.9-6.02-8.56-6.02-14v-232.43c0-5.43,2-10.15,6.02-14.17,4.01-4.01,8.74-6.02,14.17-6.02s10.45,2.01,14.35,6.02c3.9,4.02,5.85,8.74,5.85,14.17v95.67h3.9l132.88-111.25c3.73-3.07,7.93-4.61,12.61-4.61,6.07,0,11.21,2.46,15.43,7.37,3.54,3.97,5.08,8.71,4.61,14.21-.48,5.5-2.83,10.12-7.09,13.86l-119.67,100.66,119.69,100.5.35.35c4.25,3.55,6.61,8.12,7.09,13.68.47,5.56-1.06,10.47-4.61,14.74-4.02,4.74-9.23,7.1-15.62,7.1Z"/>
        <path class="cls-2" d="M608.93,1553.98c-5.44,0-10.16-2-14.17-6.02-4.02-4.01-6.02-8.74-6.02-14.17v-232.08c0-5.43,2-10.15,6.02-14.17,4.01-4.01,8.74-6.02,14.17-6.02s10.45,2.01,14.35,6.02c3.9,4.02,5.85,8.74,5.85,14.17v232.08c0,5.44-1.95,10.16-5.85,14.17-3.9,4.02-8.68,6.02-14.35,6.02Z"/>
        <path class="cls-2" d="M1185.22,1553.98h-66.26c-21.97,0-40.39-7.67-55.27-23.03-15.36-14.88-23.03-33.31-23.03-55.28v-115.86c0-21.49,7.67-39.92,23.03-55.27,14.88-15.35,33.18-23.03,54.92-23.03h66.97c21.49,0,39.92,7.68,55.27,23.03,15.11,15.59,22.68,34.01,22.68,55.27v115.86c0,21.74-7.56,40.16-22.68,55.28-15.36,15.36-33.9,23.03-55.63,23.03ZM1185.22,1321.9h-66.26c-10.4,0-19.31,3.72-26.75,11.16-7.44,7.44-11.16,16.36-11.16,26.75v115.86c0,10.4,3.72,19.31,11.16,26.75,7.44,7.44,16.35,11.16,26.75,11.16h66.26c10.39,0,19.31-3.72,26.75-11.16,7.44-7.44,11.16-16.35,11.16-26.75v-115.86c0-10.39-3.72-19.31-11.16-26.75-7.44-7.44-16.36-11.16-26.75-11.16Z"/>
        <path class="cls-2" d="M1411.91,1553.98c-3.06,0-5.65-.47-7.77-1.42-4.94-2.13-8.47-5.67-10.58-10.63l-97.44-232.43c-1.89-5.19-1.89-10.28,0-15.24,2.11-5.43,5.75-9.21,10.91-11.34,2.11-.94,4.69-1.42,7.75-1.42,8.91,0,15.13,4.17,18.65,12.51l78.58,187.47,78.4-187.67c3.55-8.21,9.82-12.31,18.81-12.31,3.07,0,5.67.47,7.81,1.41,5.2,2.13,8.87,5.9,11.01,11.32,1.89,4.71,1.89,9.78,0,15.2l-97.43,232.09c-3.53,8.31-9.77,12.46-18.7,12.46Z"/>
        <path class="cls-2" d="M1744.69,1553.98c-5.44,0-10.16-2-14.17-6.02-4.02-4.01-6.02-8.74-6.02-14.17v-86.1h-128.62v86.1c0,5.44-1.95,10.16-5.85,14.17-3.9,4.02-8.68,6.02-14.35,6.02s-10.16-2-14.17-6.02c-4.02-4.01-6.02-8.74-6.02-14.17v-173.97c0-21.49,7.67-39.92,23.03-55.27,14.88-15.35,33.31-23.03,55.27-23.03h52.79c21.73,0,40.27,7.68,55.63,23.03,15.11,15.59,22.68,34.01,22.68,55.27v173.97c0,5.44-1.95,10.16-5.85,14.17-3.9,4.02-8.68,6.02-14.35,6.02ZM1595.87,1406.93h128.62v-47.12c0-10.39-3.72-19.31-11.16-26.75-7.44-7.44-16.36-11.16-26.75-11.16h-52.79c-10.4,0-19.31,3.72-26.75,11.16-7.44,7.44-11.16,16.36-11.16,26.75v47.12Z"/>
        <path class="cls-2" d="M2006.88,1553.98c-7.09,0-12.64-2.94-16.66-8.85l-138.88-183.2v171.85c0,5.44-1.95,10.16-5.85,14.17-3.9,4.02-8.68,6.02-14.35,6.02s-10.16-2-14.17-6.02c-4.02-4.01-6.02-8.74-6.02-14.17v-232.08c0-5.43,2-10.15,6.02-14.17,4.01-4.01,8.73-6.02,14.16-6.02,6.13,0,11.33,2.49,15.58,7.46l139.98,184.64v-171.91c0-5.43,2-10.15,6.02-14.17,4.01-4.02,8.74-6.03,14.17-6.03s10.45,2.01,14.35,6.02c3.9,4.02,5.85,8.74,5.85,14.17v232.08c0,5.44-1.95,10.16-5.85,14.17-3.9,4.02-8.68,6.02-14.35,6.02Z"/>
        <path class="cls-2" d="M2255.61,1553.98h-104.52c-21.74,0-40.04-7.67-54.92-23.03-15.36-14.88-23.03-33.31-23.03-55.28v-115.86c0-21.49,7.67-39.92,23.03-55.27,14.88-15.35,33.31-23.03,55.27-23.03h104.17c5.67,0,10.45,2.01,14.35,6.02,3.9,4.02,5.85,8.74,5.85,14.17s-1.95,10.45-5.85,14.35c-3.9,3.9-8.68,5.85-14.35,5.85h-104.17c-10.4,0-19.31,3.72-26.75,11.16-7.44,7.44-11.16,16.36-11.16,26.75v115.86c0,10.4,3.72,19.31,11.16,26.75,7.44,7.44,16.35,11.16,26.75,11.16h104.17c5.67,0,10.45,1.95,14.35,5.85,3.9,3.9,5.85,8.68,5.85,14.35s-1.95,10.16-5.85,14.17c-3.9,4.02-8.68,6.02-14.35,6.02Z"/>
        <path class="cls-2" d="M2485.21,1553.98h-104.88c-21.74,0-40.04-7.67-54.92-23.03-15.36-14.88-23.03-33.31-23.03-55.28v-115.86c0-21.49,7.67-39.92,23.03-55.27,14.88-15.35,33.31-23.03,55.27-23.03h104.17c5.67,0,10.45,2.01,14.35,6.02,3.9,4.02,5.85,8.74,5.85,14.17s-1.95,10.45-5.85,14.35c-3.9,3.9-8.68,5.85-14.35,5.85h-104.17c-10.4,0-19.31,3.72-26.75,11.16-7.44,7.44-11.16,16.36-11.16,26.75v37.56h131.81c5.67,0,10.45,2.01,14.35,6.02,3.9,4.02,5.85,8.86,5.85,14.53s-1.95,10.16-5.85,14.17c-3.9,4.02-8.68,6.02-14.35,6.02h-131.81v37.56c0,10.4,3.72,19.31,11.16,26.75,7.44,7.44,16.35,11.16,26.75,11.16h104.17c5.67,0,10.45,1.95,14.35,5.85,3.9,3.9,5.85,8.68,5.85,14.35s-1.95,10.16-5.85,14.17c-3.9,4.02-8.56,6.02-14,6.02Z"/>
      </g>
      <path class="cls-1" d="M885.68,1549.74l-.34.27c-8.74,6.61-21.19,4.9-27.81-3.84l-139.91-184.72v172.62c0,10.97-8.89,19.84-19.86,19.84h-1.41c-10.97,0-19.84-8.88-19.84-19.84v-232.77c0-3.32.81-6.43,2.25-9.17.11-.2.21-.41.32-.6,3.4-6.01,9.86-10.07,17.27-10.07h1.41c4.93,0,9.47,1.81,12.94,4.8.74.7,1.43,1.48,2.07,2.32l2.42,3.19.03.06,174.29,230.11c6.62,8.74,4.9,21.19-3.84,27.8Z"/>
      <path class="cls-1" d="M783.8,1285.74l.34-.27c8.74-6.61,21.19-4.9,27.81,3.84l139.91,184.72v-172.62c0-10.97,8.89-19.84,19.86-19.84h1.41c10.97,0,19.84,8.88,19.84,19.84v232.77c0,3.32-.81,6.43-2.25,9.17-.11.2-.21.41-.32.6-3.4,6.01-9.86,10.07-17.27,10.07h-1.41c-4.93,0-9.47-1.81-12.94-4.8-.74-.7-1.43-1.48-2.07-2.32l-2.42-3.19-.03-.06-174.29-230.11c-6.62-8.74-4.9-21.19,3.84-27.8Z"/>
    </g>
  </g>
</svg>